<?xml version="1.0" encoding="UTF-8" standalone="no"?>
<svg
   xmlns:dc="http://purl.org/dc/elements/1.1/"
   xmlns:cc="http://creativecommons.org/ns#"
   xmlns:rdf="http://www.w3.org/1999/02/22-rdf-syntax-ns#"
   xmlns:svg="http://www.w3.org/2000/svg"
   xmlns="http://www.w3.org/2000/svg"
   xmlns:sodipodi="http://sodipodi.sourceforge.net/DTD/sodipodi-0.dtd"
   xmlns:inkscape="http://www.inkscape.org/namespaces/inkscape"
   width="41.914436"
   height="30.083569"
   viewBox="0 0 11.089863 7.9596109"
   version="1.1"
   id="svg2942"
   inkscape:version="1.0.1 (c497b03c, 2020-09-10)"
   sodipodi:docname="kettle.svg">
  <defs
     id="defs2936" />
  <sodipodi:namedview
     id="base"
     pagecolor="#ffffff"
     bordercolor="#666666"
     borderopacity="1.0"
     inkscape:pageopacity="0.0"
     inkscape:pageshadow="2"
     inkscape:zoom="7.0203245"
     inkscape:cx="21.914713"
     inkscape:cy="4.3450883"
     inkscape:document-units="px"
     inkscape:current-layer="layer1"
     inkscape:document-rotation="0"
     showgrid="false"
     units="px"
     inkscape:window-width="1440"
     inkscape:window-height="847"
     inkscape:window-x="0"
     inkscape:window-y="25"
     inkscape:window-maximized="0"
     showguides="false">
    <inkscape:grid
       type="xygrid"
       id="grid8442"
       originx="-40.626495"
       originy="-56.667534" />
  </sodipodi:namedview>
  <metadata
     id="metadata2939">
    <rdf:RDF>
      <cc:Work
         rdf:about="">
        <dc:format>image/svg+xml</dc:format>
        <dc:type
           rdf:resource="http://purl.org/dc/dcmitype/StillImage" />
        <dc:title></dc:title>
      </cc:Work>
    </rdf:RDF>
  </metadata>
  <g
     inkscape:label="Layer 1"
     inkscape:groupmode="layer"
     id="layer1"
     transform="translate(-77.877249,-73.729038)">
    <g
       id="$kettleWhole"
       transform="translate(-92.010915,22.037884)">
      <path
         style="fill:#b3b3b3;fill-opacity:1;stroke:#b4b4b3;stroke-width:0.264583px;stroke-linecap:butt;stroke-linejoin:miter;stroke-opacity:1"
         d="m 171.93485,59.505883 6.77832,0.06518 c 1.10003,-0.434508 1.23202,-0.869016 1.49906,-1.303524 1.39591,-1.226529 -0.30964,-3.366271 -1.62941,-4.301629 -2.93163,-1.180731 -5.52493,-0.167567 -6.64797,0.325877 -2.87864,2.081477 -1.99938,3.989308 0,5.214096 z"
         id="$kettleBody"
         sodipodi:nodetypes="cccccc" />
      <rect
         style="opacity:0.98;fill:#b3b3b3;fill-opacity:1;stroke:none;stroke-width:0.0569977;stroke-miterlimit:4;stroke-dasharray:none;stroke-opacity:1"
         id="rect10880"
         width="1.7228358"
         height="1.016253"
         x="89.362053"
         y="160.39404"
         transform="matrix(0.74720832,-0.6645899,0.70001265,0.71413044,0,0)" />
      <path
         style="opacity:0.98;fill:#b3b3b3;fill-opacity:1;stroke:#000000;stroke-width:0.105833;stroke-miterlimit:4;stroke-dasharray:none;stroke-opacity:1"
         id="path10886"
         sodipodi:type="arc"
         sodipodi:cx="70.612473"
         sodipodi:cy="173.84341"
         sodipodi:rx="0.47022387"
         sodipodi:ry="0.55320454"
         sodipodi:start="0"
         sodipodi:end="6.270968"
         sodipodi:open="true"
         sodipodi:arc-type="arc"
         d="m 71.082696,173.84341 a 0.47022387,0.55320454 0 0 1 -0.468787,0.55321 0.47022387,0.55320454 0 0 1 -0.471652,-0.54983 0.47022387,0.55320454 0 0 1 0.465907,-0.55656 0.47022387,0.55320454 0 0 1 0.474497,0.54643"
         transform="rotate(-51.355526)"
         inkscape:transform-center-x="0.027647141"
         inkscape:transform-center-y="-1.2674098e-05" />
      <path
         style="fill:#b3b3b3;fill-opacity:1;stroke:none;stroke-width:0.0529167;stroke-linecap:butt;stroke-linejoin:miter;stroke-miterlimit:4;stroke-dasharray:none;stroke-opacity:1"
         d="m 180.06809,53.854465 0.16596,0.276603 h 0.24894 l -0.16596,-0.608525 z"
         id="path10888" />
      <path
         style="opacity:0.98;fill:#000000;fill-opacity:1;stroke:#000000;stroke-width:0.0529167;stroke-miterlimit:4;stroke-dasharray:none;stroke-opacity:1"
         id="path10890"
         sodipodi:type="arc"
         sodipodi:cx="179.86707"
         sodipodi:cy="53.37886"
         sodipodi:rx="0.1482313"
         sodipodi:ry="0.14042965"
         sodipodi:start="0"
         sodipodi:end="6.270968"
         sodipodi:open="true"
         sodipodi:arc-type="arc"
         d="m 180.0153,53.37886 a 0.1482313,0.14042965 0 0 1 -0.14778,0.140429 0.1482313,0.14042965 0 0 1 -0.14868,-0.139571 0.1482313,0.14042965 0 0 1 0.14687,-0.141281 0.1482313,0.14042965 0 0 1 0.14958,0.138708" />
      <path
         style="fill:none;stroke:#000000;stroke-width:0.319375px;stroke-linecap:butt;stroke-linejoin:miter;stroke-opacity:1"
         d="m 172.56807,53.843974 c -0.31993,-0.666424 1.76022,-2.065402 2.70013,-1.929941 1.10006,-0.08369 2.66006,1.150235 2.50014,1.63182"
         id="$kettleHandle"
         sodipodi:nodetypes="ccc" />
      <g
         id="$kettleTop">
        <path
           style="fill:#cccccc;fill-opacity:1;stroke:#999999;stroke-width:0.264583px;stroke-linecap:butt;stroke-linejoin:miter;stroke-opacity:1"
           d="m 175.4296,53.376165 c -1.82045,0.240258 -2.57817,0.574398 -2.37259,1.13657 0.26777,0.550706 1.56218,0.778601 2.55728,0.667734 1.61303,-0.111756 2.20543,-0.272338 2.13107,-0.866634 -0.21103,-0.879883 -1.47994,-0.911221 -2.31576,-0.93767 z"
           id="path10912"
           sodipodi:nodetypes="ccccc" />
        <rect
           style="opacity:0.98;fill:#cccccc;fill-opacity:1;stroke:#999999;stroke-width:0.0529167;stroke-miterlimit:4;stroke-dasharray:none;stroke-opacity:1"
           id="rect10916"
           width="0.49839473"
           height="1.1853712"
           x="175.12514"
           y="52.951073" />
        <path
           style="opacity:0.98;fill:#cccccc;fill-opacity:1;stroke:#999999;stroke-width:0.0529167;stroke-miterlimit:4;stroke-dasharray:none;stroke-opacity:1"
           id="path10918"
           sodipodi:type="arc"
           sodipodi:cx="175.38109"
           sodipodi:cy="52.816372"
           sodipodi:rx="0.67350638"
           sodipodi:ry="0.21552205"
           sodipodi:start="0"
           sodipodi:end="6.270968"
           sodipodi:open="true"
           sodipodi:arc-type="arc"
           d="m 176.05459,52.816372 a 0.67350638,0.21552205 0 0 1 -0.67144,0.215521 0.67350638,0.21552205 0 0 1 -0.67556,-0.214205 0.67350638,0.21552205 0 0 1 0.66733,-0.216829 0.67350638,0.21552205 0 0 1 0.67962,0.21288" />
      </g>
    </g>
  </g>
</svg>
