<?xml version="1.0" encoding="UTF-8" standalone="no"?>
<svg
   xmlns:dc="http://purl.org/dc/elements/1.1/"
   xmlns:cc="http://creativecommons.org/ns#"
   xmlns:rdf="http://www.w3.org/1999/02/22-rdf-syntax-ns#"
   xmlns:svg="http://www.w3.org/2000/svg"
   xmlns="http://www.w3.org/2000/svg"
   xmlns:sodipodi="http://sodipodi.sourceforge.net/DTD/sodipodi-0.dtd"
   xmlns:inkscape="http://www.inkscape.org/namespaces/inkscape"
   width="279.0155"
   height="349.01648"
   viewBox="0 0 73.822855 92.343944"
   version="1.1"
   id="svg2942"
   inkscape:version="1.0.1 (c497b03c, 2020-09-10)"
   sodipodi:docname="officeCurtains.svg">
  <defs
     id="defs2936" />
  <sodipodi:namedview
     id="base"
     pagecolor="#ffffff"
     bordercolor="#666666"
     borderopacity="1.0"
     inkscape:pageopacity="0.0"
     inkscape:pageshadow="2"
     inkscape:zoom="0.70496989"
     inkscape:cx="0.53022253"
     inkscape:cy="238.92138"
     inkscape:document-units="px"
     inkscape:current-layer="layer1"
     inkscape:document-rotation="0"
     showgrid="false"
     units="px"
     inkscape:window-width="1252"
     inkscape:window-height="847"
     inkscape:window-x="0"
     inkscape:window-y="25"
     inkscape:window-maximized="0" />
  <metadata
     id="metadata2939">
    <rdf:RDF>
      <cc:Work
         rdf:about="">
        <dc:format>image/svg+xml</dc:format>
        <dc:type
           rdf:resource="http://purl.org/dc/dcmitype/StillImage" />
        <dc:title></dc:title>
      </cc:Work>
    </rdf:RDF>
  </metadata>
  <g
     inkscape:label="Layer 1"
     inkscape:groupmode="layer"
     id="layer1"
     transform="translate(-22.240595,-64.738064)">
    <g
       id="g4661">
      <g
         id="g77633"
         transform="translate(-76.466345,43.079678)">
        <rect
           style="opacity:1;fill:#333333;fill-opacity:1;stroke:none;stroke-width:0.205496;stroke-miterlimit:4;stroke-dasharray:none;stroke-opacity:1"
           id="rect77611"
           width="69.122498"
           height="3.133554"
           x="101.01102"
           y="23.040834"
           ry="0" />
        <ellipse
           style="opacity:1;fill:#333333;fill-opacity:1;stroke:none;stroke-width:0.264583;stroke-miterlimit:4;stroke-dasharray:none;stroke-opacity:1"
           id="path77613"
           cx="170.04138"
           cy="24.607613"
           rx="2.4884102"
           ry="2.6727369" />
        <ellipse
           style="opacity:1;fill:#333333;fill-opacity:1;stroke:none;stroke-width:0.264583;stroke-miterlimit:4;stroke-dasharray:none;stroke-opacity:1"
           id="path77613-2"
           cx="101.19535"
           cy="24.331123"
           rx="2.4884102"
           ry="2.6727369" />
      </g>
      <path
         style="fill:#000080;stroke:#000000;stroke-width:0.264583px;stroke-linecap:butt;stroke-linejoin:miter;stroke-opacity:1"
         d="m 33.862277,68.754079 c -0.009,1.778008 -0.29363,3.501803 -0.29363,5.285313 0,3.077742 0.29363,6.006217 0.29363,9.102487 0,12.63877 -0.25063,25.309741 0.58726,37.878091 0.15957,2.39354 -0.51339,7.92983 0,9.98337 0.0531,0.21232 0.26267,0.3706 0.29362,0.58725 0.37485,2.62393 -0.26818,5.37541 -0.58725,7.92797 -0.14051,1.12407 0,2.39183 0,3.52355 0,1.71069 0.4122,3.93014 0,5.57894 -0.0531,0.21232 -0.25765,0.37137 -0.29363,0.58726 -0.11895,0.71367 0.17839,1.63546 0,2.34902 -0.25055,1.00221 -0.6472,2.46282 -0.29363,3.52355 0.16158,0.48475 0.12821,1.53224 0.58726,1.76177 1.07848,0.53924 10.46558,-1.13165 11.45151,-1.17452 3.481639,-0.15137 5.3295,0.96142 7.34072,-2.0554 0.121401,-0.1821 0.138869,-0.4325 0.293629,-0.58725 0.945991,-0.946 2.331561,-1.13959 2.93628,-2.34903 0.841102,-1.6822 0.293632,-10.5588 0.293632,-12.3324 0,-5.74551 0.273449,-11.58159 0,-17.32408 -0.171551,-3.6026 -1.208831,-7.55046 -0.880891,-11.15789 0.391089,-4.30199 1.8458,-8.37613 2.642661,-12.626032 0.24583,-1.311084 0.0826,-2.55121 0.293629,-3.81717 0.188659,-1.131972 0.493991,-1.430182 0.587259,-2.642658 0.254751,-3.311797 -0.53889,-4.556382 -0.880888,-7.634341 -0.200361,-1.803223 0,-3.758673 0,-5.578943 0,-3.62142 0,-7.242838 0,-10.864258"
         id="path4604" />
      <path
         style="fill:#000080;stroke:#000000;stroke-width:0.264583px;stroke-linecap:butt;stroke-linejoin:miter;stroke-opacity:1"
         d="m 59.359384,68.575238 c 0.0326,9.723371 0.49029,19.470989 -0.88089,29.069231 -0.0969,0.678246 0.0682,1.373666 0,2.0554 0.12362,1.038531 -0.47703,1.944241 -0.58726,2.936271 -0.13943,1.25487 0.1566,2.56445 0,3.81717 -0.1332,1.06563 -0.45185,2.14672 -0.58725,3.22992 -0.20166,1.61323 0,3.36508 0,4.99169 0,3.22991 0,6.45983 0,9.68974 0,8.2216 0,16.4432 0,24.6648 0,1.23916 -0.69127,4.00679 0.29363,4.99169 0.13573,0.13573 0.7036,-0.0887 0.88088,0 1.65792,0.82896 2.91216,0.0898 4.40443,0.58725 0.54046,0.18016 1.09764,0.45443 1.76177,0.58726 1.72708,0.34542 3.91694,-0.554 5.57894,0 2.396501,0.79883 6.027611,0.32828 8.515231,-0.29363 0.582799,-0.1457 1.52424,0.26558 2.0554,0 0.93177,-0.46588 2.15663,-2.12623 2.64266,-2.93628 1.17447,-1.95746 1.78303,-4.86811 2.0554,-7.04709 0.10926,-0.87409 -0.124582,-1.77063 0,-2.64266 0.280181,-1.96123 1.030679,-3.85896 1.174509,-5.87257 0.7619,-10.66651 0.593932,-21.31483 0,-32.00552 -0.47412,-8.534214 0.984481,-17.842701 0.29363,-26.132928 -0.31573,-3.788786 -0.179218,-0.08003 -0.587248,-2.936288 -0.27913,-1.953903 0.0872,-3.968327 -0.293632,-5.87257 -0.234649,-1.173226 0.282501,-2.371276 -0.29363,-3.523543 -0.0748,-0.149568 -3.145019,0.587257 -4.404429,0.587257 -1.34648,0 0.30951,-0.0619 -1.468141,0.293629 -1.87862,0.375722 -4.011829,-0.07852 -5.872569,0.293628 -1.860471,0.372094 -3.683061,0.903673 -5.57895,1.174515 -1.166741,0.166677 -2.360991,0.09987 -3.523541,0.293628 -1.84466,0.307444 -3.69181,0.471783 -5.57894,0 z"
         id="path4606" />
    </g>
  </g>
</svg>
