<?xml version="1.0" encoding="UTF-8" standalone="no"?>
<svg
   xmlns:dc="http://purl.org/dc/elements/1.1/"
   xmlns:cc="http://creativecommons.org/ns#"
   xmlns:rdf="http://www.w3.org/1999/02/22-rdf-syntax-ns#"
   xmlns:svg="http://www.w3.org/2000/svg"
   xmlns="http://www.w3.org/2000/svg"
   xmlns:xlink="http://www.w3.org/1999/xlink"
   xmlns:sodipodi="http://sodipodi.sourceforge.net/DTD/sodipodi-0.dtd"
   xmlns:inkscape="http://www.inkscape.org/namespaces/inkscape"
   width="12.211822"
   height="22.038513"
   viewBox="0 0 3.2310448 5.8310232"
   version="1.1"
   id="svg2942"
   inkscape:version="1.0.1 (c497b03c, 2020-09-10)"
   sodipodi:docname="pepperShaker.svg">
  <defs
     id="defs2936" />
  <sodipodi:namedview
     id="base"
     pagecolor="#ffffff"
     bordercolor="#666666"
     borderopacity="1.0"
     inkscape:pageopacity="0.0"
     inkscape:pageshadow="2"
     inkscape:zoom="2.0918193"
     inkscape:cx="28.225465"
     inkscape:cy="29.922186"
     inkscape:document-units="px"
     inkscape:current-layer="layer1"
     inkscape:document-rotation="0"
     showgrid="false"
     units="px"
     inkscape:window-width="1440"
     inkscape:window-height="847"
     inkscape:window-x="0"
     inkscape:window-y="25"
     inkscape:window-maximized="0"
     showguides="false">
    <inkscape:grid
       type="xygrid"
       id="grid8442"
       originx="-36.886252"
       originy="-44.809574" />
  </sodipodi:namedview>
  <metadata
     id="metadata2939">
    <rdf:RDF>
      <cc:Work
         rdf:about="">
        <dc:format>image/svg+xml</dc:format>
        <dc:type
           rdf:resource="http://purl.org/dc/dcmitype/StillImage" />
        <dc:title></dc:title>
      </cc:Work>
    </rdf:RDF>
  </metadata>
  <g
     inkscape:label="Layer 1"
     inkscape:groupmode="layer"
     id="layer1"
     transform="translate(-74.136999,-61.87109)">
    <g
       id="$pepperShaker"
       transform="matrix(0.49446693,0,0,0.49446693,23.81468,37.734704)">
      <rect
         style="opacity:0.634568;fill:#666666;fill-opacity:1;stroke:none;stroke-width:0.494422;stroke-miterlimit:4;stroke-dasharray:none;stroke-opacity:1"
         id="rect11852-2"
         width="6.1442866"
         height="9.5577793"
         x="101.9659"
         y="51.007332"
         ry="0.73146272" />
      <path
         style="opacity:1;fill:#999999;fill-opacity:1;stroke:none;stroke-width:0.472735;stroke-miterlimit:4;stroke-dasharray:none;stroke-opacity:1"
         id="path11854-6"
         sodipodi:type="arc"
         sodipodi:cx="105.03805"
         sodipodi:cy="50.690365"
         sodipodi:rx="3.2672"
         sodipodi:ry="1.877421"
         sodipodi:start="0"
         sodipodi:end="6.270968"
         sodipodi:open="true"
         sodipodi:arc-type="arc"
         d="m 108.30525,50.690365 a 3.2672,1.877421 0 0 1 -3.25722,1.877412 3.2672,1.877421 0 0 1 -3.27712,-1.865944 3.2672,1.877421 0 0 1 3.2372,-1.88881 3.2672,1.877421 0 0 1 3.29689,1.854405" />
      <path
         style="opacity:1;fill:#000000;fill-opacity:1;stroke:none;stroke-width:0.265466;stroke-miterlimit:4;stroke-dasharray:none;stroke-opacity:1"
         id="path11856-0"
         sodipodi:type="arc"
         sodipodi:cx="102.34269"
         sodipodi:cy="49.97401"
         sodipodi:rx="0.18022151"
         sodipodi:ry="0.17320891"
         sodipodi:start="0"
         sodipodi:end="6.270968"
         sodipodi:open="true"
         sodipodi:arc-type="arc"
         d="m 102.52291,49.97401 a 0.18022151,0.17320891 0 0 1 -0.17967,0.173209 0.18022151,0.17320891 0 0 1 -0.18077,-0.17215 0.18022151,0.17320891 0 0 1 0.17857,-0.17426 0.18022151,0.17320891 0 0 1 0.18186,0.171085" />
      <use
         id="use12121-0"
         inkscape:spray-origin="#path11856"
         xlink:href="#path11856-0"
         x="0"
         y="0"
         width="100%"
         height="100%"
         transform="translate(-0.04388816,0.80537404)" />
      <use
         id="use12127-4"
         inkscape:spray-origin="#path11856"
         xlink:href="#path11856-0"
         x="0"
         y="0"
         width="100%"
         height="100%"
         transform="translate(0.40924883,1.6148514)" />
      <use
         id="use12129-0"
         inkscape:spray-origin="#path11856"
         xlink:href="#path11856-0"
         x="0"
         y="0"
         width="100%"
         height="100%"
         transform="translate(1.177832,1.915816)" />
      <use
         id="use12131-9"
         inkscape:spray-origin="#path11856"
         xlink:href="#path11856-0"
         x="0"
         y="0"
         width="100%"
         height="100%"
         transform="translate(1.2223902,1.5236131)" />
      <use
         id="use12133-7"
         inkscape:spray-origin="#path11856"
         xlink:href="#path11856-0"
         x="0"
         y="0"
         width="100%"
         height="100%"
         transform="translate(0.49955933,0.96097981)" />
      <use
         id="use12135-5"
         inkscape:spray-origin="#path11856"
         xlink:href="#path11856-0"
         x="0"
         y="0"
         width="100%"
         height="100%"
         transform="translate(0.56294848,0.21273343)" />
      <use
         id="use12137-0"
         inkscape:spray-origin="#path11856"
         xlink:href="#path11856-0"
         x="0"
         y="0"
         width="100%"
         height="100%"
         transform="translate(1.2304427,0.93116207)" />
      <use
         id="use12139-4"
         inkscape:spray-origin="#path11856"
         xlink:href="#path11856-0"
         x="0"
         y="0"
         width="100%"
         height="100%"
         transform="translate(1.1995908,0.52126726)" />
      <use
         id="use12141-0"
         inkscape:spray-origin="#path11856"
         xlink:href="#path11856-0"
         x="0"
         y="0"
         width="100%"
         height="100%"
         transform="translate(0.99646882,-0.06185605)" />
      <use
         id="use12143-2"
         inkscape:spray-origin="#path11856"
         xlink:href="#path11856-0"
         x="0"
         y="0"
         width="100%"
         height="100%"
         transform="translate(1.446836,-0.78030157)" />
      <use
         id="use12145-6"
         inkscape:spray-origin="#path11856"
         xlink:href="#path11856-0"
         x="0"
         y="0"
         width="100%"
         height="100%"
         transform="translate(1.5348357,-0.3189372)" />
      <use
         id="use12147-6"
         inkscape:spray-origin="#path11856"
         xlink:href="#path11856-0"
         x="0"
         y="0"
         width="100%"
         height="100%"
         transform="translate(1.7603495,0.21581555)" />
      <use
         id="use12149-0"
         inkscape:spray-origin="#path11856"
         xlink:href="#path11856-0"
         x="0"
         y="0"
         width="100%"
         height="100%"
         transform="translate(1.9693178,0.88489692)" />
      <use
         id="use12151-5"
         inkscape:spray-origin="#path11856"
         xlink:href="#path11856-0"
         x="0"
         y="0"
         width="100%"
         height="100%"
         transform="translate(1.9660668,1.3605577)" />
      <use
         id="use12153-4"
         inkscape:spray-origin="#path11856"
         xlink:href="#path11856-0"
         x="0"
         y="0"
         width="100%"
         height="100%"
         transform="translate(1.8042148,1.9928427)" />
      <use
         id="use12157-4"
         inkscape:spray-origin="#path11856"
         xlink:href="#path11856-0"
         x="0"
         y="0"
         width="100%"
         height="100%"
         transform="translate(2.5842171,1.5595888)" />
      <use
         id="use12159-6"
         inkscape:spray-origin="#path11856"
         xlink:href="#path11856-0"
         x="0"
         y="0"
         width="100%"
         height="100%"
         transform="translate(2.443999,1.1559955)" />
      <use
         id="use12161-9"
         inkscape:spray-origin="#path11856"
         xlink:href="#path11856-0"
         x="0"
         y="0"
         width="100%"
         height="100%"
         transform="translate(2.8089822,0.71648076)" />
      <use
         id="use12163-4"
         inkscape:spray-origin="#path11856"
         xlink:href="#path11856-0"
         x="0"
         y="0"
         width="100%"
         height="100%"
         transform="translate(2.4183661,0.21081816)" />
      <use
         id="use12165-7"
         inkscape:spray-origin="#path11856"
         xlink:href="#path11856-0"
         x="0"
         y="0"
         width="100%"
         height="100%"
         transform="translate(2.9355301,-0.22534183)" />
      <use
         id="use12167-9"
         inkscape:spray-origin="#path11856"
         xlink:href="#path11856-0"
         x="0"
         y="0"
         width="100%"
         height="100%"
         transform="translate(2.4349996,-0.38419939)" />
      <use
         id="use12169-1"
         inkscape:spray-origin="#path11856"
         xlink:href="#path11856-0"
         x="0"
         y="0"
         width="100%"
         height="100%"
         transform="translate(2.3183195,-0.91048088)" />
      <use
         id="use12171-1"
         inkscape:spray-origin="#path11856"
         xlink:href="#path11856-0"
         x="0"
         y="0"
         width="100%"
         height="100%"
         transform="translate(2.9175845,-0.71854718)" />
      <use
         id="use12173-2"
         inkscape:spray-origin="#path11856"
         xlink:href="#path11856-0"
         x="0"
         y="0"
         width="100%"
         height="100%"
         transform="translate(3.5371454,-0.77358999)" />
      <use
         id="use12175-7"
         inkscape:spray-origin="#path11856"
         xlink:href="#path11856-0"
         x="0"
         y="0"
         width="100%"
         height="100%"
         transform="translate(3.6097105,-0.30659905)" />
      <use
         id="use12177-4"
         inkscape:spray-origin="#path11856"
         xlink:href="#path11856-0"
         x="0"
         y="0"
         width="100%"
         height="100%"
         transform="translate(3.2050678,0.28333381)" />
      <use
         id="use12179-2"
         inkscape:spray-origin="#path11856"
         xlink:href="#path11856-0"
         x="0"
         y="0"
         width="100%"
         height="100%"
         transform="translate(3.1919883,1.1254405)" />
      <use
         id="use12181-4"
         inkscape:spray-origin="#path11856"
         xlink:href="#path11856-0"
         x="0"
         y="0"
         width="100%"
         height="100%"
         transform="translate(3.8374395,0.78195748)" />
      <use
         id="use12183-7"
         inkscape:spray-origin="#path11856"
         xlink:href="#path11856-0"
         x="0"
         y="0"
         width="100%"
         height="100%"
         transform="translate(3.3935473,1.8821015)" />
      <use
         id="use12185-3"
         inkscape:spray-origin="#path11856"
         xlink:href="#path11856-0"
         x="0"
         y="0"
         width="100%"
         height="100%"
         transform="translate(3.9203277,1.5157497)" />
      <use
         id="use12187-8"
         inkscape:spray-origin="#path11856"
         xlink:href="#path11856-0"
         x="0"
         y="0"
         width="100%"
         height="100%"
         transform="translate(4.1707697,1.9286807)" />
      <use
         id="use12189-4"
         inkscape:spray-origin="#path11856"
         xlink:href="#path11856-0"
         x="0"
         y="0"
         width="100%"
         height="100%"
         transform="translate(4.3537923,1.1904537)" />
      <use
         id="use12191-4"
         inkscape:spray-origin="#path11856"
         xlink:href="#path11856-0"
         x="0"
         y="0"
         width="100%"
         height="100%"
         transform="translate(4.8299246,1.723926)" />
      <use
         id="use12193-2"
         inkscape:spray-origin="#path11856"
         xlink:href="#path11856-0"
         x="0"
         y="0"
         width="100%"
         height="100%"
         transform="translate(5.1293821,1.2320736)" />
      <use
         id="use12195-8"
         inkscape:spray-origin="#path11856"
         xlink:href="#path11856-0"
         x="0"
         y="0"
         width="100%"
         height="100%"
         transform="translate(4.6863796,0.66512193)" />
      <use
         id="use12197-5"
         inkscape:spray-origin="#path11856"
         xlink:href="#path11856-0"
         x="0"
         y="0"
         width="100%"
         height="100%"
         transform="translate(5.3030653,0.58550722)" />
      <use
         id="use12199-8"
         inkscape:spray-origin="#path11856"
         xlink:href="#path11856-0"
         x="0"
         y="0"
         width="100%"
         height="100%"
         transform="translate(4.1867496,0.22703046)" />
      <use
         id="use12201-5"
         inkscape:spray-origin="#path11856"
         xlink:href="#path11856-0"
         x="0"
         y="0"
         width="100%"
         height="100%"
         transform="translate(4.9336136,0.20232046)" />
      <use
         id="use12203-0"
         inkscape:spray-origin="#path11856"
         xlink:href="#path11856-0"
         x="0"
         y="0"
         width="100%"
         height="100%"
         transform="translate(4.9436491,-0.44498652)" />
      <use
         id="use12205-4"
         inkscape:spray-origin="#path11856"
         xlink:href="#path11856-0"
         x="0"
         y="0"
         width="100%"
         height="100%"
         transform="translate(4.4307757,-0.39817467)" />
      <use
         id="use12207-9"
         inkscape:spray-origin="#path11856"
         xlink:href="#path11856-0"
         x="0"
         y="0"
         width="100%"
         height="100%"
         transform="translate(4.082969,-0.63356521)" />
      <path
         style="fill:#4d4d4d;stroke:none;stroke-width:0.264583px;stroke-linecap:butt;stroke-linejoin:miter;stroke-opacity:1"
         d="m 101.95895,52.404173 0.0248,7.334107 c 0.003,0.913847 0.55303,0.719708 0.94154,0.867209 l 4.31127,-0.04956 c 0.39779,-0.04224 0.81616,0.135077 0.91676,-0.966317 l -0.0495,-7.259775 c -2.08473,0.46207 -4.12606,0.403281 -6.14487,0.07434 z"
         id="path67211-3"
         sodipodi:nodetypes="ccccccc" />
      <path
         style="opacity:1;fill:#b3b3b3;fill-opacity:1;stroke:none;stroke-width:0.29335;stroke-miterlimit:4;stroke-dasharray:none;stroke-opacity:1"
         id="path67564"
         sodipodi:type="arc"
         sodipodi:cx="102.72858"
         sodipodi:cy="59.46069"
         sodipodi:rx="0.21328008"
         sodipodi:ry="0.23887374"
         sodipodi:start="0"
         sodipodi:end="6.270968"
         sodipodi:open="true"
         sodipodi:arc-type="arc"
         d="m 102.94186,59.46069 a 0.21328008,0.23887374 0 0 1 -0.21263,0.238872 0.21328008,0.23887374 0 0 1 -0.21393,-0.237413 0.21328008,0.23887374 0 0 1 0.21132,-0.240323 0.21328008,0.23887374 0 0 1 0.21522,0.235945" />
      <path
         style="opacity:1;fill:#b3b3b3;fill-opacity:1;stroke:none;stroke-width:0.293349;stroke-miterlimit:4;stroke-dasharray:none;stroke-opacity:1"
         id="path67564-7"
         sodipodi:type="arc"
         sodipodi:cx="103.78691"
         sodipodi:cy="59.989857"
         sodipodi:rx="0.21328008"
         sodipodi:ry="0.23887374"
         sodipodi:start="0"
         sodipodi:end="6.270968"
         sodipodi:open="true"
         sodipodi:arc-type="arc"
         d="m 104.00019,59.989857 a 0.21328008,0.23887374 0 0 1 -0.21263,0.238872 0.21328008,0.23887374 0 0 1 -0.21393,-0.237413 0.21328008,0.23887374 0 0 1 0.21133,-0.240323 0.21328008,0.23887374 0 0 1 0.21522,0.235945" />
      <path
         style="opacity:1;fill:#b3b3b3;fill-opacity:1;stroke:none;stroke-width:0.293349;stroke-miterlimit:4;stroke-dasharray:none;stroke-opacity:1"
         id="path67564-0"
         sodipodi:type="arc"
         sodipodi:cx="104.58066"
         sodipodi:cy="59.989857"
         sodipodi:rx="0.21328008"
         sodipodi:ry="0.23887374"
         sodipodi:start="0"
         sodipodi:end="6.270968"
         sodipodi:open="true"
         sodipodi:arc-type="arc"
         d="m 104.79394,59.989857 a 0.21328008,0.23887374 0 0 1 -0.21263,0.238872 0.21328008,0.23887374 0 0 1 -0.21393,-0.237413 0.21328008,0.23887374 0 0 1 0.21132,-0.240323 0.21328008,0.23887374 0 0 1 0.21522,0.235945" />
      <path
         style="opacity:1;fill:#b3b3b3;fill-opacity:1;stroke:none;stroke-width:0.293349;stroke-miterlimit:4;stroke-dasharray:none;stroke-opacity:1"
         id="path67564-8"
         sodipodi:type="arc"
         sodipodi:cx="105.37441"
         sodipodi:cy="59.989857"
         sodipodi:rx="0.21328008"
         sodipodi:ry="0.23887374"
         sodipodi:start="0"
         sodipodi:end="6.270968"
         sodipodi:open="true"
         sodipodi:arc-type="arc"
         d="m 105.58769,59.989857 a 0.21328008,0.23887374 0 0 1 -0.21263,0.238872 0.21328008,0.23887374 0 0 1 -0.21392,-0.237413 0.21328008,0.23887374 0 0 1 0.21132,-0.240323 0.21328008,0.23887374 0 0 1 0.21522,0.235945" />
      <path
         style="opacity:1;fill:#b3b3b3;fill-opacity:1;stroke:none;stroke-width:0.293349;stroke-miterlimit:4;stroke-dasharray:none;stroke-opacity:1"
         id="path67564-3"
         sodipodi:type="arc"
         sodipodi:cx="106.69733"
         sodipodi:cy="59.725273"
         sodipodi:rx="0.21328008"
         sodipodi:ry="0.23887374"
         sodipodi:start="0"
         sodipodi:end="6.270968"
         sodipodi:open="true"
         sodipodi:arc-type="arc"
         d="m 106.91061,59.725273 a 0.21328008,0.23887374 0 0 1 -0.21263,0.238873 0.21328008,0.23887374 0 0 1 -0.21393,-0.237414 0.21328008,0.23887374 0 0 1 0.21132,-0.240323 0.21328008,0.23887374 0 0 1 0.21522,0.235946" />
      <path
         style="opacity:1;fill:#b3b3b3;fill-opacity:1;stroke:none;stroke-width:0.293349;stroke-miterlimit:4;stroke-dasharray:none;stroke-opacity:1"
         id="path67564-1"
         sodipodi:type="arc"
         sodipodi:cx="107.49108"
         sodipodi:cy="59.196106"
         sodipodi:rx="0.21328008"
         sodipodi:ry="0.23887374"
         sodipodi:start="0"
         sodipodi:end="6.270968"
         sodipodi:open="true"
         sodipodi:arc-type="arc"
         d="m 107.70436,59.196106 a 0.21328008,0.23887374 0 0 1 -0.21263,0.238873 0.21328008,0.23887374 0 0 1 -0.21392,-0.237414 0.21328008,0.23887374 0 0 1 0.21132,-0.240323 0.21328008,0.23887374 0 0 1 0.21522,0.235946" />
      <path
         style="opacity:1;fill:#b3b3b3;fill-opacity:1;stroke:none;stroke-width:0.293349;stroke-miterlimit:4;stroke-dasharray:none;stroke-opacity:1"
         id="path67564-33"
         sodipodi:type="arc"
         sodipodi:cx="105.90358"
         sodipodi:cy="58.931522"
         sodipodi:rx="0.21328008"
         sodipodi:ry="0.23887374"
         sodipodi:start="0"
         sodipodi:end="6.270968"
         sodipodi:open="true"
         sodipodi:arc-type="arc"
         d="m 106.11686,58.931522 a 0.21328008,0.23887374 0 0 1 -0.21263,0.238873 0.21328008,0.23887374 0 0 1 -0.21393,-0.237413 0.21328008,0.23887374 0 0 1 0.21133,-0.240323 0.21328008,0.23887374 0 0 1 0.21521,0.235945" />
      <path
         style="opacity:1;fill:#b3b3b3;fill-opacity:1;stroke:none;stroke-width:0.293349;stroke-miterlimit:4;stroke-dasharray:none;stroke-opacity:1"
         id="path67564-4"
         sodipodi:type="arc"
         sodipodi:cx="104.31608"
         sodipodi:cy="58.931522"
         sodipodi:rx="0.21328008"
         sodipodi:ry="0.23887374"
         sodipodi:start="0"
         sodipodi:end="6.270968"
         sodipodi:open="true"
         sodipodi:arc-type="arc"
         d="m 104.52936,58.931522 a 0.21328008,0.23887374 0 0 1 -0.21263,0.238873 0.21328008,0.23887374 0 0 1 -0.21393,-0.237413 0.21328008,0.23887374 0 0 1 0.21132,-0.240323 0.21328008,0.23887374 0 0 1 0.21522,0.235945" />
      <path
         style="opacity:1;fill:#b3b3b3;fill-opacity:1;stroke:none;stroke-width:0.293349;stroke-miterlimit:4;stroke-dasharray:none;stroke-opacity:1"
         id="path67564-39"
         sodipodi:type="arc"
         sodipodi:cx="103.25774"
         sodipodi:cy="58.402355"
         sodipodi:rx="0.21328008"
         sodipodi:ry="0.23887374"
         sodipodi:start="0"
         sodipodi:end="6.270968"
         sodipodi:open="true"
         sodipodi:arc-type="arc"
         d="m 103.47102,58.402355 a 0.21328008,0.23887374 0 0 1 -0.21263,0.238873 0.21328008,0.23887374 0 0 1 -0.21393,-0.237414 0.21328008,0.23887374 0 0 1 0.21132,-0.240323 0.21328008,0.23887374 0 0 1 0.21522,0.235946" />
      <path
         style="opacity:1;fill:#b3b3b3;fill-opacity:1;stroke:none;stroke-width:0.293349;stroke-miterlimit:4;stroke-dasharray:none;stroke-opacity:1"
         id="path67564-9"
         sodipodi:type="arc"
         sodipodi:cx="102.72858"
         sodipodi:cy="58.402355"
         sodipodi:rx="0.21328008"
         sodipodi:ry="0.23887374"
         sodipodi:start="0"
         sodipodi:end="6.270968"
         sodipodi:open="true"
         sodipodi:arc-type="arc"
         d="m 102.94186,58.402355 a 0.21328008,0.23887374 0 0 1 -0.21263,0.238873 0.21328008,0.23887374 0 0 1 -0.21393,-0.237414 0.21328008,0.23887374 0 0 1 0.21132,-0.240323 0.21328008,0.23887374 0 0 1 0.21522,0.235946" />
      <path
         style="opacity:1;fill:#b3b3b3;fill-opacity:1;stroke:none;stroke-width:0.293349;stroke-miterlimit:4;stroke-dasharray:none;stroke-opacity:1"
         id="path67564-5"
         sodipodi:type="arc"
         sodipodi:cx="104.31608"
         sodipodi:cy="58.137772"
         sodipodi:rx="0.21328008"
         sodipodi:ry="0.23887374"
         sodipodi:start="0"
         sodipodi:end="6.270968"
         sodipodi:open="true"
         sodipodi:arc-type="arc"
         d="m 104.52936,58.137772 a 0.21328008,0.23887374 0 0 1 -0.21263,0.238872 0.21328008,0.23887374 0 0 1 -0.21393,-0.237413 0.21328008,0.23887374 0 0 1 0.21132,-0.240323 0.21328008,0.23887374 0 0 1 0.21522,0.235945" />
      <path
         style="opacity:1;fill:#b3b3b3;fill-opacity:1;stroke:none;stroke-width:0.293349;stroke-miterlimit:4;stroke-dasharray:none;stroke-opacity:1"
         id="path67564-46"
         sodipodi:type="arc"
         sodipodi:cx="105.10983"
         sodipodi:cy="58.137772"
         sodipodi:rx="0.21328008"
         sodipodi:ry="0.23887374"
         sodipodi:start="0"
         sodipodi:end="6.270968"
         sodipodi:open="true"
         sodipodi:arc-type="arc"
         d="m 105.32311,58.137772 a 0.21328008,0.23887374 0 0 1 -0.21263,0.238872 0.21328008,0.23887374 0 0 1 -0.21392,-0.237413 0.21328008,0.23887374 0 0 1 0.21132,-0.240323 0.21328008,0.23887374 0 0 1 0.21522,0.235945" />
      <path
         style="opacity:1;fill:#b3b3b3;fill-opacity:1;stroke:none;stroke-width:0.293349;stroke-miterlimit:4;stroke-dasharray:none;stroke-opacity:1"
         id="path67564-6"
         sodipodi:type="arc"
         sodipodi:cx="106.43275"
         sodipodi:cy="58.137772"
         sodipodi:rx="0.21328008"
         sodipodi:ry="0.23887374"
         sodipodi:start="0"
         sodipodi:end="6.270968"
         sodipodi:open="true"
         sodipodi:arc-type="arc"
         d="m 106.64603,58.137772 a 0.21328008,0.23887374 0 0 1 -0.21263,0.238872 0.21328008,0.23887374 0 0 1 -0.21393,-0.237413 0.21328008,0.23887374 0 0 1 0.21132,-0.240323 0.21328008,0.23887374 0 0 1 0.21522,0.235945" />
      <path
         style="opacity:1;fill:#b3b3b3;fill-opacity:1;stroke:none;stroke-width:0.293349;stroke-miterlimit:4;stroke-dasharray:none;stroke-opacity:1"
         id="path67564-00"
         sodipodi:type="arc"
         sodipodi:cx="107.22649"
         sodipodi:cy="58.137772"
         sodipodi:rx="0.21328008"
         sodipodi:ry="0.23887374"
         sodipodi:start="0"
         sodipodi:end="6.270968"
         sodipodi:open="true"
         sodipodi:arc-type="arc"
         d="m 107.43977,58.137772 a 0.21328008,0.23887374 0 0 1 -0.21263,0.238872 0.21328008,0.23887374 0 0 1 -0.21393,-0.237413 0.21328008,0.23887374 0 0 1 0.21132,-0.240323 0.21328008,0.23887374 0 0 1 0.21522,0.235945" />
      <path
         style="opacity:1;fill:#b3b3b3;fill-opacity:1;stroke:none;stroke-width:0.293349;stroke-miterlimit:4;stroke-dasharray:none;stroke-opacity:1"
         id="path67564-17"
         sodipodi:type="arc"
         sodipodi:cx="107.49108"
         sodipodi:cy="57.079441"
         sodipodi:rx="0.21328008"
         sodipodi:ry="0.23887374"
         sodipodi:start="0"
         sodipodi:end="6.270968"
         sodipodi:open="true"
         sodipodi:arc-type="arc"
         d="m 107.70436,57.079441 a 0.21328008,0.23887374 0 0 1 -0.21263,0.238873 0.21328008,0.23887374 0 0 1 -0.21392,-0.237414 0.21328008,0.23887374 0 0 1 0.21132,-0.240323 0.21328008,0.23887374 0 0 1 0.21522,0.235946" />
      <path
         style="opacity:1;fill:#b3b3b3;fill-opacity:1;stroke:none;stroke-width:0.293349;stroke-miterlimit:4;stroke-dasharray:none;stroke-opacity:1"
         id="path67564-81"
         sodipodi:type="arc"
         sodipodi:cx="106.43275"
         sodipodi:cy="57.079441"
         sodipodi:rx="0.21328008"
         sodipodi:ry="0.23887374"
         sodipodi:start="0"
         sodipodi:end="6.270968"
         sodipodi:open="true"
         sodipodi:arc-type="arc"
         d="m 106.64603,57.079441 a 0.21328008,0.23887374 0 0 1 -0.21263,0.238873 0.21328008,0.23887374 0 0 1 -0.21393,-0.237414 0.21328008,0.23887374 0 0 1 0.21132,-0.240323 0.21328008,0.23887374 0 0 1 0.21522,0.235946" />
      <path
         style="opacity:1;fill:#b3b3b3;fill-opacity:1;stroke:none;stroke-width:0.293349;stroke-miterlimit:4;stroke-dasharray:none;stroke-opacity:1"
         id="path67564-84"
         sodipodi:type="arc"
         sodipodi:cx="104.84525"
         sodipodi:cy="57.079441"
         sodipodi:rx="0.21328008"
         sodipodi:ry="0.23887374"
         sodipodi:start="0"
         sodipodi:end="6.270968"
         sodipodi:open="true"
         sodipodi:arc-type="arc"
         d="m 105.05853,57.079441 a 0.21328008,0.23887374 0 0 1 -0.21263,0.238873 0.21328008,0.23887374 0 0 1 -0.21392,-0.237414 0.21328008,0.23887374 0 0 1 0.21132,-0.240323 0.21328008,0.23887374 0 0 1 0.21522,0.235946" />
      <path
         style="opacity:1;fill:#b3b3b3;fill-opacity:1;stroke:none;stroke-width:0.293349;stroke-miterlimit:4;stroke-dasharray:none;stroke-opacity:1"
         id="path67564-07"
         sodipodi:type="arc"
         sodipodi:cx="103.25774"
         sodipodi:cy="57.344021"
         sodipodi:rx="0.21328008"
         sodipodi:ry="0.23887374"
         sodipodi:start="0"
         sodipodi:end="6.270968"
         sodipodi:open="true"
         sodipodi:arc-type="arc"
         d="m 103.47102,57.344021 a 0.21328008,0.23887374 0 0 1 -0.21263,0.238872 0.21328008,0.23887374 0 0 1 -0.21393,-0.237413 0.21328008,0.23887374 0 0 1 0.21132,-0.240323 0.21328008,0.23887374 0 0 1 0.21522,0.235946" />
      <path
         style="opacity:1;fill:#b3b3b3;fill-opacity:1;stroke:none;stroke-width:0.293349;stroke-miterlimit:4;stroke-dasharray:none;stroke-opacity:1"
         id="path67564-47"
         sodipodi:type="arc"
         sodipodi:cx="102.464"
         sodipodi:cy="56.550274"
         sodipodi:rx="0.21328008"
         sodipodi:ry="0.23887374"
         sodipodi:start="0"
         sodipodi:end="6.270968"
         sodipodi:open="true"
         sodipodi:arc-type="arc"
         d="m 102.67728,56.550274 a 0.21328008,0.23887374 0 0 1 -0.21263,0.238873 0.21328008,0.23887374 0 0 1 -0.21393,-0.237414 0.21328008,0.23887374 0 0 1 0.21132,-0.240323 0.21328008,0.23887374 0 0 1 0.21522,0.235946" />
      <path
         style="opacity:1;fill:#b3b3b3;fill-opacity:1;stroke:none;stroke-width:0.293349;stroke-miterlimit:4;stroke-dasharray:none;stroke-opacity:1"
         id="path67564-09"
         sodipodi:type="arc"
         sodipodi:cx="103.52233"
         sodipodi:cy="56.28569"
         sodipodi:rx="0.21328008"
         sodipodi:ry="0.23887374"
         sodipodi:start="0"
         sodipodi:end="6.270968"
         sodipodi:open="true"
         sodipodi:arc-type="arc"
         d="m 103.73561,56.28569 a 0.21328008,0.23887374 0 0 1 -0.21263,0.238873 0.21328008,0.23887374 0 0 1 -0.21392,-0.237414 0.21328008,0.23887374 0 0 1 0.21132,-0.240322 0.21328008,0.23887374 0 0 1 0.21522,0.235945" />
      <path
         style="opacity:1;fill:#b3b3b3;fill-opacity:1;stroke:none;stroke-width:0.293349;stroke-miterlimit:4;stroke-dasharray:none;stroke-opacity:1"
         id="path67564-62"
         sodipodi:type="arc"
         sodipodi:cx="105.37441"
         sodipodi:cy="56.28569"
         sodipodi:rx="0.21328008"
         sodipodi:ry="0.23887374"
         sodipodi:start="0"
         sodipodi:end="6.270968"
         sodipodi:open="true"
         sodipodi:arc-type="arc"
         d="m 105.58769,56.28569 a 0.21328008,0.23887374 0 0 1 -0.21263,0.238873 0.21328008,0.23887374 0 0 1 -0.21392,-0.237414 0.21328008,0.23887374 0 0 1 0.21132,-0.240322 0.21328008,0.23887374 0 0 1 0.21522,0.235945" />
      <path
         style="opacity:1;fill:#b3b3b3;fill-opacity:1;stroke:none;stroke-width:0.293349;stroke-miterlimit:4;stroke-dasharray:none;stroke-opacity:1"
         id="path67564-178"
         sodipodi:type="arc"
         sodipodi:cx="106.96191"
         sodipodi:cy="56.021107"
         sodipodi:rx="0.21328008"
         sodipodi:ry="0.23887374"
         sodipodi:start="0"
         sodipodi:end="6.270968"
         sodipodi:open="true"
         sodipodi:arc-type="arc"
         d="m 107.17519,56.021107 a 0.21328008,0.23887374 0 0 1 -0.21263,0.238872 0.21328008,0.23887374 0 0 1 -0.21393,-0.237413 0.21328008,0.23887374 0 0 1 0.21132,-0.240323 0.21328008,0.23887374 0 0 1 0.21522,0.235945" />
      <path
         style="opacity:1;fill:#b3b3b3;fill-opacity:1;stroke:none;stroke-width:0.293349;stroke-miterlimit:4;stroke-dasharray:none;stroke-opacity:1"
         id="path67564-71"
         sodipodi:type="arc"
         sodipodi:cx="107.49108"
         sodipodi:cy="55.49194"
         sodipodi:rx="0.21328008"
         sodipodi:ry="0.23887374"
         sodipodi:start="0"
         sodipodi:end="6.270968"
         sodipodi:open="true"
         sodipodi:arc-type="arc"
         d="m 107.70436,55.49194 a 0.21328008,0.23887374 0 0 1 -0.21263,0.238872 0.21328008,0.23887374 0 0 1 -0.21392,-0.237413 0.21328008,0.23887374 0 0 1 0.21132,-0.240323 0.21328008,0.23887374 0 0 1 0.21522,0.235945" />
      <path
         style="opacity:1;fill:#b3b3b3;fill-opacity:1;stroke:none;stroke-width:0.293349;stroke-miterlimit:4;stroke-dasharray:none;stroke-opacity:1"
         id="path67564-88"
         sodipodi:type="arc"
         sodipodi:cx="105.90358"
         sodipodi:cy="55.227356"
         sodipodi:rx="0.21328008"
         sodipodi:ry="0.23887374"
         sodipodi:start="0"
         sodipodi:end="6.270968"
         sodipodi:open="true"
         sodipodi:arc-type="arc"
         d="m 106.11686,55.227356 a 0.21328008,0.23887374 0 0 1 -0.21263,0.238873 0.21328008,0.23887374 0 0 1 -0.21393,-0.237414 0.21328008,0.23887374 0 0 1 0.21133,-0.240323 0.21328008,0.23887374 0 0 1 0.21521,0.235946" />
      <path
         style="opacity:1;fill:#b3b3b3;fill-opacity:1;stroke:none;stroke-width:0.293349;stroke-miterlimit:4;stroke-dasharray:none;stroke-opacity:1"
         id="path67564-44"
         sodipodi:type="arc"
         sodipodi:cx="104.31608"
         sodipodi:cy="55.227356"
         sodipodi:rx="0.21328008"
         sodipodi:ry="0.23887374"
         sodipodi:start="0"
         sodipodi:end="6.270968"
         sodipodi:open="true"
         sodipodi:arc-type="arc"
         d="m 104.52936,55.227356 a 0.21328008,0.23887374 0 0 1 -0.21263,0.238873 0.21328008,0.23887374 0 0 1 -0.21393,-0.237414 0.21328008,0.23887374 0 0 1 0.21132,-0.240323 0.21328008,0.23887374 0 0 1 0.21522,0.235946" />
      <path
         style="opacity:1;fill:#b3b3b3;fill-opacity:1;stroke:none;stroke-width:0.293349;stroke-miterlimit:4;stroke-dasharray:none;stroke-opacity:1"
         id="path67564-70"
         sodipodi:type="arc"
         sodipodi:cx="103.25774"
         sodipodi:cy="55.227356"
         sodipodi:rx="0.21328008"
         sodipodi:ry="0.23887374"
         sodipodi:start="0"
         sodipodi:end="6.270968"
         sodipodi:open="true"
         sodipodi:arc-type="arc"
         d="m 103.47102,55.227356 a 0.21328008,0.23887374 0 0 1 -0.21263,0.238873 0.21328008,0.23887374 0 0 1 -0.21393,-0.237414 0.21328008,0.23887374 0 0 1 0.21132,-0.240323 0.21328008,0.23887374 0 0 1 0.21522,0.235946" />
      <path
         style="opacity:1;fill:#b3b3b3;fill-opacity:1;stroke:none;stroke-width:0.293349;stroke-miterlimit:4;stroke-dasharray:none;stroke-opacity:1"
         id="path67564-2"
         sodipodi:type="arc"
         sodipodi:cx="102.464"
         sodipodi:cy="54.169022"
         sodipodi:rx="0.21328008"
         sodipodi:ry="0.23887374"
         sodipodi:start="0"
         sodipodi:end="6.270968"
         sodipodi:open="true"
         sodipodi:arc-type="arc"
         d="m 102.67728,54.169022 a 0.21328008,0.23887374 0 0 1 -0.21263,0.238872 0.21328008,0.23887374 0 0 1 -0.21393,-0.237413 0.21328008,0.23887374 0 0 1 0.21132,-0.240323 0.21328008,0.23887374 0 0 1 0.21522,0.235945" />
      <path
         style="opacity:1;fill:#b3b3b3;fill-opacity:1;stroke:none;stroke-width:0.293349;stroke-miterlimit:4;stroke-dasharray:none;stroke-opacity:1"
         id="path67564-01"
         sodipodi:type="arc"
         sodipodi:cx="103.52233"
         sodipodi:cy="54.433605"
         sodipodi:rx="0.21328008"
         sodipodi:ry="0.23887374"
         sodipodi:start="0"
         sodipodi:end="6.270968"
         sodipodi:open="true"
         sodipodi:arc-type="arc"
         d="m 103.73561,54.433605 a 0.21328008,0.23887374 0 0 1 -0.21263,0.238873 0.21328008,0.23887374 0 0 1 -0.21392,-0.237414 0.21328008,0.23887374 0 0 1 0.21132,-0.240323 0.21328008,0.23887374 0 0 1 0.21522,0.235946" />
      <path
         style="opacity:1;fill:#b3b3b3;fill-opacity:1;stroke:none;stroke-width:0.293349;stroke-miterlimit:4;stroke-dasharray:none;stroke-opacity:1"
         id="path67564-092"
         sodipodi:type="arc"
         sodipodi:cx="105.10983"
         sodipodi:cy="54.433605"
         sodipodi:rx="0.21328008"
         sodipodi:ry="0.23887374"
         sodipodi:start="0"
         sodipodi:end="6.270968"
         sodipodi:open="true"
         sodipodi:arc-type="arc"
         d="m 105.32311,54.433605 a 0.21328008,0.23887374 0 0 1 -0.21263,0.238873 0.21328008,0.23887374 0 0 1 -0.21392,-0.237414 0.21328008,0.23887374 0 0 1 0.21132,-0.240323 0.21328008,0.23887374 0 0 1 0.21522,0.235946" />
      <path
         style="opacity:1;fill:#b3b3b3;fill-opacity:1;stroke:none;stroke-width:0.293349;stroke-miterlimit:4;stroke-dasharray:none;stroke-opacity:1"
         id="path67564-78"
         sodipodi:type="arc"
         sodipodi:cx="106.43275"
         sodipodi:cy="54.169022"
         sodipodi:rx="0.21328008"
         sodipodi:ry="0.23887374"
         sodipodi:start="0"
         sodipodi:end="6.270968"
         sodipodi:open="true"
         sodipodi:arc-type="arc"
         d="m 106.64603,54.169022 a 0.21328008,0.23887374 0 0 1 -0.21263,0.238872 0.21328008,0.23887374 0 0 1 -0.21393,-0.237413 0.21328008,0.23887374 0 0 1 0.21132,-0.240323 0.21328008,0.23887374 0 0 1 0.21522,0.235945" />
      <path
         style="opacity:1;fill:#b3b3b3;fill-opacity:1;stroke:none;stroke-width:0.293349;stroke-miterlimit:4;stroke-dasharray:none;stroke-opacity:1"
         id="path67564-815"
         sodipodi:type="arc"
         sodipodi:cx="107.49108"
         sodipodi:cy="53.904438"
         sodipodi:rx="0.21328008"
         sodipodi:ry="0.23887374"
         sodipodi:start="0"
         sodipodi:end="6.270968"
         sodipodi:open="true"
         sodipodi:arc-type="arc"
         d="m 107.70436,53.904438 a 0.21328008,0.23887374 0 0 1 -0.21263,0.238873 0.21328008,0.23887374 0 0 1 -0.21392,-0.237414 0.21328008,0.23887374 0 0 1 0.21132,-0.240323 0.21328008,0.23887374 0 0 1 0.21522,0.235946" />
      <path
         style="opacity:1;fill:#b3b3b3;fill-opacity:1;stroke:none;stroke-width:0.293349;stroke-miterlimit:4;stroke-dasharray:none;stroke-opacity:1"
         id="path67564-66"
         sodipodi:type="arc"
         sodipodi:cx="107.22649"
         sodipodi:cy="53.110691"
         sodipodi:rx="0.21328008"
         sodipodi:ry="0.23887374"
         sodipodi:start="0"
         sodipodi:end="6.270968"
         sodipodi:open="true"
         sodipodi:arc-type="arc"
         d="m 107.43977,53.110691 a 0.21328008,0.23887374 0 0 1 -0.21263,0.238873 0.21328008,0.23887374 0 0 1 -0.21393,-0.237414 0.21328008,0.23887374 0 0 1 0.21132,-0.240323 0.21328008,0.23887374 0 0 1 0.21522,0.235946" />
    </g>
  </g>
</svg>
